<?xml version="1.0" encoding="UTF-8"?><svg id="Layer_1" xmlns="http://www.w3.org/2000/svg" viewBox="0 0 424.32 385.62"><defs><style>.cls-1{fill:#4a3529;}</style></defs><path class="cls-1" d="M355.83,39c15.31,0,22.9,10.27,25.45,14.69,2.55,4.42,7.66,16.12,0,29.38l-143.67,248.85c-7.66,13.26-20.35,14.69-25.45,14.69s-17.79-1.43-25.45-14.69L43.04,83.08c-7.66-13.26-2.55-24.97,0-29.39,2.55-4.42,10.14-14.69,25.45-14.69H355.83m0-39H68.49C15.84,0-17.06,56.99,9.26,102.58l143.67,248.85c13.16,22.8,36.19,34.19,59.22,34.19s46.06-11.4,59.22-34.19L415.06,102.58C441.38,56.99,408.47,0,355.83,0h0Z"/></svg>