<?xml version="1.0" encoding="UTF-8"?><svg id="Layer_1" xmlns="http://www.w3.org/2000/svg" viewBox="0 0 424.32 385.62"><defs><style>.cls-1{fill:#fff;}</style></defs><path class="cls-1" d="M68.49,346.62c-15.31,0-22.9-10.27-25.45-14.69-2.55-4.42-7.66-16.12,0-29.38L186.71,53.69c7.66-13.26,20.35-14.69,25.45-14.69s17.79,1.43,25.45,14.69l143.67,248.85c7.66,13.26,2.55,24.97,0,29.39-2.55,4.42-10.14,14.69-25.45,14.69H68.49m0,39H355.83c52.64,0,85.54-56.99,59.22-102.58L271.38,34.19C258.22,11.4,235.19,0,212.16,0s-46.06,11.4-59.22,34.19L9.26,283.04c-26.32,45.59,6.58,102.58,59.22,102.58h0Z"/></svg>