<?xml version="1.0" encoding="UTF-8"?><svg id="Layer_1" xmlns="http://www.w3.org/2000/svg" viewBox="0 0 491.03 257.08"><defs><style>.cls-1{fill:#faf49d;}</style></defs><path class="cls-1" d="m435.24,18.46c-43.59-28.05-117.81-16.69-132.53-13.4-48.07,10.74-47.21,63.2-99.77,81.9-41.57,14.79-67.54-36.26-137-14.89C27.23,83.98,12.05,107.83,1.92,136.1c-12.64,35.26,39.23,96.23,95.3,105.72,33.68,5.7,39.2-12.19,84.88-17.87,91.85-11.41,133.81,52.98,181.67,26.8,29.48-16.13,18.43-43.23,65.52-80.41,30.94-24.43,26.8-8.93,52.12-38.72,14.23-16.74,22.01-69.31-46.16-113.17Z"/></svg>