<?xml version="1.0" encoding="utf-8"?>
<!-- Generator: Adobe Illustrator 28.0.0, SVG Export Plug-In . SVG Version: 6.00 Build 0)  -->
<svg version="1.1" id="Layer_1" xmlns="http://www.w3.org/2000/svg" xmlns:xlink="http://www.w3.org/1999/xlink" x="0px" y="0px"
	 viewBox="0 0 1920 1920" style="enable-background:new 0 0 1920 1920;" xml:space="preserve">
<style type="text/css">
	.st0{fill:url(#SVGID_1_);}
</style>
<g>
	<linearGradient id="SVGID_1_" gradientUnits="userSpaceOnUse" x1="280.9591" y1="1638.6599" x2="1638.4695" y2="281.1496">
		<stop  offset="0" style="stop-color:#FFC30C"/>
		<stop  offset="0.3126" style="stop-color:#FFEEAD"/>
		<stop  offset="0.5712" style="stop-color:#FFFCE0"/>
		<stop  offset="0.7477" style="stop-color:#FFEEAD"/>
		<stop  offset="1" style="stop-color:#FFC30C"/>
	</linearGradient>
	<circle class="st0" cx="959.71" cy="959.9" r="959.9"/>
	<path d="M474.52,1558.8c-14.02-11.54-24.5-23.64-31.43-36.32c-6.94-12.67-9.21-26.14-6.83-40.42
		c2.38-14.27,10.45-29.77,24.23-46.52c13.37-16.25,27.11-26.69,41.2-31.32c14.1-4.62,28.74-4.28,43.93,1.03
		c15.18,5.31,31.14,14.86,47.89,28.64c12.53,10.3,22.69,19.76,30.5,28.36c7.79,8.59,13.33,15.08,16.61,19.44l-20.06,24.38
		c-3.78-4.77-9.75-11.66-17.93-20.69c-8.18-9.01-17.79-18.07-28.83-27.15c-10.92-8.98-21.18-15.35-30.78-19.09
		c-9.61-3.74-18.84-4.16-27.69-1.24c-8.85,2.91-17.76,9.83-26.74,20.74c-9.28,11.29-14.71,21.55-16.26,30.77
		c-1.56,9.22-0.01,17.83,4.65,25.82c4.66,8,11.7,15.87,21.13,23.63c8.81,7.24,16.57,12.9,23.3,16.99c6.73,4.09,11.63,6.66,14.7,7.73
		l23.27-28.28l-34.79-28.63l18.82-22.89l61.41,50.52l-61.08,74.24c-2.35,2.86-4.83,3.21-7.43,1.07c-1.11-0.91-2.03-2.08-2.74-3.5
		c-0.71-1.42-1.38-3.12-2.04-5.11l-6.89-16.28c-5.73-1.38-12.84-3.86-21.35-7.42C494.78,1573.75,485.19,1567.58,474.52,1558.8z
		 M633.67,1659.9c-12.91-5.77-22.06-13.06-27.44-21.89c-5.39-8.82-5.26-19.54,0.37-32.16c5.63-12.61,13.68-19.71,24.15-21.27
		c10.46-1.58,22.88,0.85,37.26,7.27c7.33,3.27,13.74,6.84,19.23,10.7c5.49,3.86,9.74,7.34,12.75,10.45l3.45-7.7
		c1.63-3.67,2.12-7.23,1.47-10.69c-0.66-3.46-2.97-6.95-6.93-10.48c-3.97-3.53-10.21-7.2-18.7-11c-7.49-3.34-14.92-6-22.3-7.98
		c-7.39-1.98-13.72-3.36-19-4.13l11.39-25.52c5.35,0.63,12.17,2.09,20.47,4.39c8.3,2.3,17.58,5.74,27.85,10.33
		c11.44,5.11,20.28,10.42,26.53,15.94c6.25,5.51,10.5,11.24,12.78,17.19c2.28,5.94,2.98,11.93,2.13,17.97
		c-0.85,6.05-2.62,12.07-5.3,18.08l-29.18,65.34c-1.7,3.81-4.39,4.9-8.06,3.26c-1.32-0.59-2.55-1.58-3.68-2.97
		c-1.15-1.39-2.36-2.99-3.67-4.81l-8.56-13.32c-7,1.09-14.2,1.27-21.6,0.51C651.66,1666.66,643.2,1664.16,633.67,1659.9z
		 M653.25,1641.47c6.74,3.01,12.87,4.96,18.37,5.83c5.51,0.87,9.66,1.32,12.47,1.34l7.96-17.81c-2.83-2.32-6.48-4.92-10.91-7.78
		c-4.44-2.86-9.38-5.51-14.8-7.92c-7.63-3.41-13.63-4.94-18-4.61c-4.37,0.33-7.67,2.99-9.9,7.98c-2.16,4.84-2.07,9.06,0.29,12.66
		C641.07,1634.75,645.91,1638.19,653.25,1641.47z M787.85,1710.25l-33.15-7.46l25.66-114c0.95-4.23,3.47-5.9,7.54-4.97
		c1.42,0.32,2.81,1.04,4.2,2.18c1.39,1.14,2.81,2.52,4.25,4.17l12.12,13.1c10.37-2.93,20.11-4.49,29.21-4.66s19.3,0.93,30.62,3.31
		l-7.19,31.98c-8.82-1.82-17.94-3.55-27.37-5.17c-9.43-1.63-18.32-2.9-26.68-3.79L787.85,1710.25z M918,1731.72
		c-14.13-0.47-25.35-3.78-33.66-9.92c-8.31-6.14-12.24-16.11-11.78-29.92c0.46-13.8,5.24-23.41,14.34-28.82
		c9.1-5.4,21.51-7.84,37.25-7.32c8.03,0.27,15.31,1.15,21.86,2.66c6.54,1.5,11.78,3.13,15.75,4.86l0.29-8.43
		c0.13-4.02-0.76-7.5-2.67-10.46c-1.92-2.95-5.37-5.31-10.37-7.09c-5-1.77-12.16-2.82-21.47-3.13c-8.19-0.27-16.08,0.06-23.66,1.02
		c-7.59,0.95-13.97,2.07-19.16,3.34l0.93-27.93c5.19-1.43,12.06-2.65,20.61-3.65c8.55-1,18.44-1.32,29.68-0.95
		c12.52,0.42,22.71,2.01,30.58,4.76c7.86,2.75,13.96,6.45,18.32,11.1c4.34,4.64,7.26,9.92,8.75,15.84
		c1.5,5.92,2.12,12.17,1.91,18.74l-2.38,71.53c-0.14,4.17-2.22,6.19-6.23,6.06c-1.44-0.05-2.96-0.5-4.54-1.36
		c-1.58-0.86-3.31-1.88-5.2-3.06l-12.95-9.11c-6.07,3.65-12.67,6.53-19.82,8.62C937.23,1731.19,928.44,1732.06,918,1731.72z
		 M929.18,1707.26c7.38,0.25,13.8-0.26,19.22-1.53c5.43-1.27,9.44-2.42,12.05-3.45l0.65-19.51c-3.5-1.08-7.85-2.11-13.04-3.09
		c-5.19-0.98-10.76-1.57-16.69-1.76c-8.35-0.28-14.49,0.56-18.41,2.52c-3.92,1.96-5.98,5.66-6.16,11.12
		c-0.17,5.3,1.5,9.17,5.04,11.62C915.38,1705.63,921.15,1706.99,929.18,1707.26z M1083.32,1720.48l-33.3,6.73l-23.16-114.54
		c-0.86-4.26,0.76-6.79,4.85-7.62c1.42-0.29,3.03-0.2,4.85,0.25c1.81,0.45,3.63,1.15,5.46,2.08l15.94,7.1
		c5.5-5.2,11.71-9.95,18.63-14.22c6.92-4.26,15.66-7.46,26.21-9.6c15.9-3.22,28.65-1.94,38.26,3.81
		c9.6,5.77,15.86,15.81,18.75,30.14l15.62,77.23l-33.07,6.68l-13.95-68.96c-1.62-8.03-4.77-13.41-9.41-16.17
		c-4.65-2.74-12.1-3.09-22.33-1.01c-5.66,1.15-11.25,2.72-16.74,4.73c-5.5,2.01-10.22,4.15-14.19,6.44L1083.32,1720.48z
		 M1288.32,1659.32c-16.92,7.42-30.66,9.59-41.22,6.5c-10.57-3.09-18.68-11.11-24.36-24.05l-21.19-48.33l-24.05,10.55l-11.32-25.83
		l24.06-10.54l-14.13-32.22l30.9-13.54l14.12,32.22l43.47-19.06l11.32,25.83l-43.47,19.05l18.09,41.27
		c2.97,6.77,6.78,10.97,11.44,12.61c4.67,1.64,11.7,0.39,21.12-3.74c4.26-1.87,8.13-4.04,11.61-6.53c3.47-2.48,6.09-4.3,7.88-5.43
		l11.32,25.82c-2.54,1.81-5.9,4.16-10.06,7.04C1299.68,1653.82,1294.5,1656.62,1288.32,1659.32z M1284.55,1498.68l-19.82-3.55
		c-4.51-1.16-6.25-3.95-5.23-8.39l5.29-19.76c0.97-4.2,3.7-5.9,8.18-5.09l20.07,3.95c4.65,1.08,6.39,3.87,5.22,8.39l-5.54,19.36
		C1291.62,1497.88,1288.89,1499.58,1284.55,1498.68z M1376.99,1606.02l-28.83,17.97l-63.72-102.25l28.83-17.96L1376.99,1606.02z
		 M1471.37,1536.88c-13.15,11.57-25.19,19.1-36.11,22.61c-10.92,3.51-21.27,3.3-31.03-0.63c-9.77-3.92-19.42-11.32-28.97-22.17
		c-14.11-16.05-20.22-31.69-18.33-46.93c1.89-15.24,10.44-29.55,25.63-42.92c11.22-9.87,21.81-16.07,31.75-18.63
		c9.96-2.55,19.13-2.16,27.5,1.17c8.38,3.33,15.91,8.79,22.6,16.39c2.43,2.78,4.68,5.57,6.72,8.37c2.04,2.81,3.84,5.35,5.4,7.61
		l-69.66,61.26c4.85,4.3,9.6,6.91,14.27,7.83c4.66,0.92,9.76,0.03,15.28-2.69c5.52-2.72,12.09-7.42,19.68-14.11
		c7.24-6.36,13.29-12.75,18.13-19.15c4.85-6.4,8.41-11.35,10.69-14.85l18.14,20.63c-1.96,3.86-5.67,9.05-11.16,15.59
		C1486.41,1522.8,1479.57,1529.68,1471.37,1536.88z M1392.39,1506.55l46.15-40.58c-5.39-6.6-11.17-9.96-17.37-10.08
		c-6.2-0.11-13.28,3.33-21.23,10.33c-7.49,6.58-11.85,13.04-13.11,19.39C1385.55,1491.97,1387.42,1498.94,1392.39,1506.55z
		 M486.18,1323.68c-16.88,0-31.28-0.81-43.19-2.43c-11.91-1.62-21.35-3.29-28.29-5.02v-49.15c6.2,1.74,15.39,3.54,27.55,5.4
		c12.16,1.86,25.69,2.79,40.58,2.79c26.3,0,44.49-4.41,54.54-13.22c10.06-8.82,15.08-21.54,15.08-38.17v-161.6h54.36v172.39
		c0,28.3-9.75,50.2-29.22,65.72C558.1,1315.92,527.64,1323.68,486.18,1323.68z M728.57,1323.68c-21.85,0-39.34-4.53-52.5-13.6
		c-13.16-9.05-19.73-24.26-19.73-45.6s6.89-36.42,20.66-45.24c13.78-8.81,32.83-13.22,57.16-13.22c12.41,0,23.7,0.99,33.88,2.98
		s18.37,4.22,24.58,6.7v-13.03c0-6.2-1.55-11.54-4.65-16.01s-8.56-7.94-16.38-10.42c-7.82-2.48-18.93-3.72-33.32-3.72
		c-12.67,0-24.82,0.93-36.49,2.79c-11.66,1.86-21.47,3.91-29.41,6.14v-43.19c7.95-2.47,18.49-4.71,31.65-6.7
		c13.15-1.98,28.42-2.98,45.8-2.98c19.37,0,35.19,1.93,47.47,5.77c12.28,3.85,21.9,9.25,28.86,16.2
		c6.95,6.95,11.73,14.96,14.34,24.01c2.6,9.06,3.91,18.68,3.91,28.86v110.58c0,6.45-3.1,9.68-9.31,9.68c-2.24,0-4.6-0.63-7.07-1.86
		c-2.48-1.25-5.21-2.73-8.19-4.47l-20.48-13.41c-9.18,5.96-19.24,10.74-30.15,14.34C758.23,1321.87,744.7,1323.68,728.57,1323.68z
		 M744.58,1285.32c11.42,0,21.28-1.11,29.6-3.35c8.31-2.24,14.46-4.22,18.43-5.96v-30.15c-5.47-1.49-12.23-2.85-20.29-4.1
		c-8.08-1.24-16.7-1.86-25.88-1.86c-12.9,0-22.34,1.61-28.29,4.84c-5.96,3.23-8.94,9.07-8.94,17.5c0,8.19,2.79,14.09,8.38,17.69
		C723.17,1283.52,732.16,1285.32,744.58,1285.32z M948.99,1319.2h-52.5v-271.8h52.5v99.41c9.18-5.22,19.23-9.56,30.15-13.03
		c10.92-3.48,23.96-5.21,39.1-5.21c25.07,0,44,5.83,56.78,17.5c12.78,11.67,19.17,28.8,19.17,51.38v121.75h-52.13v-108.72
		c0-12.66-3.1-21.78-9.31-27.37s-17.38-8.38-33.51-8.38c-8.93,0-17.87,0.69-26.8,2.05c-8.93,1.37-16.76,3.17-23.45,5.39V1319.2z
		 M1198.81,1319.2h-52.5v-180.58c0-6.7,3.22-10.05,9.68-10.05c2.24,0,4.59,0.62,7.07,1.85c2.48,1.25,5.08,2.86,7.82,4.85
		l22.71,15.63c14.64-7.94,28.79-13.59,42.45-16.94c13.64-3.35,29.41-5.15,47.28-5.39v50.63c-13.91,0.25-28.24,0.75-43,1.49
		c-14.77,0.75-28.61,1.86-41.52,3.35V1319.2z M1415.51,1323.68c-27.06,0-48.72-3.54-64.98-10.61c-16.25-7.07-28.05-17.87-35.36-32.4
		c-7.33-14.52-10.99-32.95-10.99-55.29c0-33.01,8.87-57.4,26.62-73.16c17.74-15.76,42.26-23.64,73.54-23.64
		c23.08,0,41.7,3.6,55.84,10.8c14.15,7.2,24.39,17,30.72,29.41c6.33,12.41,9.5,26.43,9.5,42.07c0,5.71-0.25,11.23-0.75,16.56
		c-0.5,5.35-0.99,10.12-1.49,14.34h-143.35c1.23,9.93,4.09,17.81,8.56,23.65c4.47,5.83,11.29,9.99,20.48,12.47
		c9.18,2.49,21.59,3.72,37.23,3.72c14.89,0,28.42-1.23,40.58-3.72c12.16-2.47,21.34-4.58,27.55-6.33v42.45
		c-6.21,2.48-15.82,4.72-28.86,6.7C1447.34,1322.68,1432.38,1323.68,1415.51,1323.68z M1354.82,1207.87h94.94
		c0.49-13.15-2.79-22.95-9.87-29.41c-7.07-6.45-18.8-9.67-35.18-9.67c-15.4,0-27.06,3.04-35,9.12
		C1361.77,1183.99,1356.8,1193.98,1354.82,1207.87z M960.16,1833.17c-481.52,0-873.27-391.74-873.27-873.27
		S478.63,86.64,960.16,86.64s873.27,391.74,873.27,873.27S1441.68,1833.17,960.16,1833.17z M960.16,151.82
		c-445.58,0-808.09,362.51-808.09,808.09s362.51,808.09,808.09,808.09s808.09-362.51,808.09-808.09S1405.74,151.82,960.16,151.82z
		 M946.35,990.74c-36.42,0-69.04-1.97-97.83-5.87c-28.79-3.91-50.63-7.64-65.51-11.16v-74.04c16.06,3.92,38.58,7.93,67.57,12.05
		c28.98,4.11,60.12,6.17,93.42,6.17c45.44,0,76.87-4.8,94.3-14.4c17.42-9.59,26.14-24.77,26.14-45.53
		c0-20.76-7.54-34.57-22.62-41.42c-15.08-6.85-37.31-10.29-66.69-10.29H873.5v-53.47l144.54-101.65H789.47v-72.86h316.7
		c12.53,0,21.93,2.94,28.2,8.82c6.26,5.87,9.4,13.91,9.4,24.09c0,16.45-8.82,30.95-26.44,43.48L989.24,746.9h22.92
		c26.23,0.4,49.94,4.11,71.09,11.16c21.16,7.06,37.99,18.61,50.54,34.67c12.53,16.06,18.8,38.19,18.8,66.39
		c0,44.65-16.45,77.76-49.36,99.29C1070.33,979.98,1018.04,990.74,946.35,990.74z M464.35,1052.61
		c-5.59-30.21-8.43-61.25-8.43-92.26c0-277.79,225.99-503.78,503.78-503.78s503.79,225.99,503.79,503.78
		c0,26.56-2.08,53.22-6.2,79.27l32.19,5.08c4.38-27.71,6.6-56.09,6.6-84.34c0-295.75-240.62-536.37-536.38-536.37
		c-295.75,0-536.37,240.62-536.37,536.37c0,32.99,3.02,66.03,8.97,98.19L464.35,1052.61z M1187.36,257.41h-51.94
		c-53.98,0-58.78,44.17-58.78,57.66c0,13.5,4.8,57.66,58.78,57.66h51.94c53.98,0,58.78-44.17,58.78-57.66
		C1246.14,301.57,1241.34,257.41,1187.36,257.41 M1187.36,346.37h-51.94c-29.2,0-31.8-23.97-31.8-31.3c0-7.33,2.6-31.3,31.8-31.3
		h51.94c29.2,0,31.79,23.97,31.79,31.3C1219.16,322.4,1216.56,346.37,1187.36,346.37 M1068.7,260.11h-16.84
		c-7.21,0-8.7,1.23-11.48,5.37c-2.78,4.13-50.93,77.73-50.93,77.73c-1.53,2.27-3.16,3.18-5.19,3.18s-3.66-0.92-5.19-3.18
		c0,0-48.15-73.6-50.93-77.73c-2.78-4.13-4.26-5.37-11.47-5.37h-16.84c-3.87,0-5.65,3.04-3.21,6.74
		c2.43,3.71,57.51,87.43,57.51,87.43c8.93,13.14,15.47,18.46,30.14,18.46c14.66,0,21.21-5.32,30.14-18.46
		c0,0,55.07-83.73,57.5-87.43C1074.34,263.15,1072.57,260.11,1068.7,260.11 M864.96,260.11h-12.72c-5.11,0-7.13,2.03-7.13,7.14
		v98.34c0,5.12,2.03,7.15,7.13,7.15h12.72c5.11,0,7.13-2.03,7.13-7.15v-98.34C872.1,262.14,870.07,260.11,864.96,260.11
		 M864.39,216.68c-4.15-4.15-7.44-4.15-11.58,0l-8.86,8.88c-4.15,4.15-4.15,7.45,0,11.6l8.86,8.87c4.15,4.15,7.44,4.15,11.58,0
		l8.86-8.87c4.15-4.15,4.15-7.45,0-11.6L864.39,216.68z M817.38,260.11h-16.84c-7.21,0-8.7,1.23-11.48,5.37
		c-2.78,4.13-50.93,77.73-50.93,77.73c-1.53,2.27-3.16,3.18-5.19,3.18c-2.02,0-3.65-0.92-5.19-3.18c0,0-48.16-73.6-50.93-77.73
		c-2.78-4.13-4.26-5.37-11.47-5.37h-16.84c-4.33,0-5.64,3.04-3.21,6.74c2.43,3.71,57.51,87.43,57.51,87.43
		c8.93,13.14,15.47,18.46,30.13,18.46c14.67,0,21.22-5.32,30.14-18.46c0,0,55.08-83.73,57.5-87.43
		C823.03,263.15,821.71,260.11,817.38,260.11"/>
</g>
</svg>
