<?xml version="1.0" encoding="UTF-8"?><svg id="Layer_1" xmlns="http://www.w3.org/2000/svg" viewBox="0 0 667.08 373.85"><defs><style>.cls-1{fill:#ef5d9e;}</style></defs><path class="cls-1" d="m111.41,322.13v1.25h-1.98v-1.35c0-7.99-2.79-14.73-10.99-14.73s-11.08,6.64-11.08,14.64c0,17.24,24.15,16.76,24.15,35.05,0,9.34-3.6,16.76-13.25,16.76s-13.16-7.42-13.16-16.76v-3.27h1.89v3.37c0,8.18,2.97,14.64,11.26,14.64s11.27-6.45,11.27-14.64c0-17.04-24.15-16.47-24.15-35.05,0-9.82,3.88-16.56,12.98-16.66,9.55,0,13.07,7.51,13.07,16.76Zm18.92,51.13v-65.39h-13.7v-2.02h29.47v2.02h-13.79v65.39h-1.98Zm23.16-16.56c0,8.09,2.7,15.12,11.08,15.12s11.08-7.03,11.08-15.12v-50.85h1.89v50.75c0,9.24-3.42,17.14-12.98,17.14s-13.07-7.9-13.07-17.14v-50.75h1.98v50.85Zm44.34-50.85c9.64,0,13.7,7.22,13.7,16.85v33.8c0,9.53-4.06,16.76-13.61,16.76h-13.25v-67.41h13.16Zm0,65.39c8.47,0,11.72-6.26,11.72-14.64v-33.99c0-8.47-3.33-14.73-11.72-14.73h-11.17v63.36h11.17Zm22.71-65.39v67.41h-1.98v-67.41h1.98Zm7.12,16.56c0-9.44,3.79-17.04,13.34-17.04s13.52,7.61,13.52,17.04v34.28c0,9.44-3.79,17.04-13.52,17.04s-13.34-7.61-13.34-17.04v-34.28Zm1.98,34.38c0,8.28,2.97,15.02,11.35,15.02s11.54-6.74,11.54-15.02v-34.47c0-8.28-3.06-15.02-11.54-15.02s-11.35,6.74-11.35,15.02v34.47ZM108.59,86.68l-37.63,201.08h-33.04L0,86.68h22.69l25.23,134.79h14.97l25.01-134.79h20.69Zm85.02,201.09h22.69l-37.92-201.08h-33.04l-37.63,201.08h20.69l32.46-174.94,32.75,174.94h0Zm62.43-47.4V86.68h-22.12v152.54c0,30.45,13.79,50.85,44.81,50.85s45.1-20.4,45.1-50.85V86.68h-20.97v153.69c0,18.1-6.9,29.02-23.27,29.02s-23.55-10.92-23.55-29.02h0Zm177.2,47.4v-20.4h-57.46V86.68h-22.41v201.09h79.86Zm84.73-201.08h-33.04l-37.63,201.08h20.69l25-134.75h14.98l25.23,134.75h22.68l-37.92-201.08Zm99.99,0h-44.81v201.07h22.41v-85.89h15.8c18.67,0,29.3,7.18,29.3,29.88v31.6c0,13.5,1.15,18.67,3.73,24.42h22.69c-3.73-6.9-4.02-15.23-4.02-24.13v-31.31c0-21.54-6.9-36.48-25.28-41.94,17.24-5.45,24.99-19.25,24.99-41.36v-16.37c0-29.88-13.21-45.96-44.81-45.96h0Zm-22.41,94.8v-74.4h21.83c16.66,0,23.27,9.47,23.27,27.57v19.25c0,21.83-10.63,27.58-28.44,27.58h-16.66ZM67.58,305.37h-26.05l13.02,68.47,13.02-68.47ZM488.57,68.47h26.05L501.59,0l-13.02,68.47Z"/></svg>