<?xml version="1.0" encoding="UTF-8"?><svg id="Layer_1" xmlns="http://www.w3.org/2000/svg" viewBox="0 0 1641.21 230.79"><defs><style>.cls-1{fill:#f79520;}</style></defs><path class="cls-1" d="m0,0h76.86c14.26,0,27.46,1.89,39.6,5.68,12.14,3.79,22.67,9.36,31.58,16.71,8.91,7.35,15.88,16.43,20.89,27.24,5.01,10.81,7.52,23.23,7.52,37.26,0,11.14-1.56,20.61-4.68,28.41-3.12,7.8-6.57,14.26-10.36,19.38-4.46,5.8-9.47,10.7-15.04,14.7l41.78,73.52h-83.55l-33.42-56.48v56.48H0V0Zm69.51,145.37c8.69,0,17.15-.89,25.4-2.67l31.75,53.47h10.36l-33.42-56.14c12.03-4.23,21.61-10.75,28.74-19.55,7.13-8.8,10.7-20.22,10.7-34.25,0-9.8-1.9-18.38-5.68-25.73-3.79-7.35-8.97-13.53-15.54-18.55-6.57-5.01-14.32-8.8-23.23-11.36-8.91-2.56-18.61-3.84-29.07-3.84h-36.09v169.44h8.69v-50.8h27.4Zm-27.4-8.02V34.76h27.4c20.27,0,36.14,4.46,47.62,13.37,11.47,8.91,17.21,21.61,17.21,38.1s-5.74,29.13-17.21,37.93c-11.48,8.8-27.35,13.2-47.62,13.2h-27.4Zm29.07-27.74h3.68c8.47,0,15.65-1.89,21.56-5.68,5.9-3.79,8.86-10.14,8.86-19.05s-2.96-15.26-8.86-19.05c-5.91-3.79-13.09-5.68-21.56-5.68h-3.68v49.46Z"/><path class="cls-1" d="m194.83,0h131.34v58.48h-60.16v24.73h59.15v55.48h-59.15v25.73h62.5v58.48h-133.68V0Zm108.95,196.17v-8.02h-66.84v-73.19h63.5v-8.02h-63.5V34.76h66.84v-8.02h-75.53v169.44h75.53Z"/><path class="cls-1" d="m377.97,58.48h-41.11V0h155.73v58.48h-41.11v164.42h-73.52V58.48Zm41.1,137.69V34.76h47.79v-8.02h-104.27v8.02h47.79v161.42h8.69Z"/><path class="cls-1" d="m504.29,0h76.86c14.26,0,27.46,1.89,39.6,5.68,12.14,3.79,22.67,9.36,31.58,16.71,8.91,7.35,15.88,16.43,20.89,27.24,5.01,10.81,7.52,23.23,7.52,37.26,0,11.14-1.56,20.61-4.68,28.41-3.12,7.8-6.57,14.26-10.36,19.38-4.46,5.8-9.47,10.7-15.04,14.7l41.78,73.52h-83.55l-33.42-56.48v56.48h-71.18V0Zm69.51,145.37c8.69,0,17.15-.89,25.4-2.67l31.75,53.47h10.36l-33.42-56.14c12.03-4.23,21.61-10.75,28.74-19.55,7.13-8.8,10.7-20.22,10.7-34.25,0-9.8-1.9-18.38-5.68-25.73-3.79-7.35-8.97-13.53-15.54-18.55-6.57-5.01-14.32-8.8-23.23-11.36-8.91-2.56-18.61-3.84-29.07-3.84h-36.09v169.44h8.69v-50.8h27.4Zm-27.4-8.02V34.76h27.4c20.27,0,36.14,4.46,47.62,13.37,11.47,8.91,17.21,21.61,17.21,38.1s-5.74,29.13-17.21,37.93c-11.48,8.8-27.35,13.2-47.62,13.2h-27.4Zm29.07-27.74h3.68c8.47,0,15.65-1.89,21.56-5.68,5.9-3.79,8.86-10.14,8.86-19.05s-2.96-15.26-8.86-19.05c-5.91-3.79-13.09-5.68-21.56-5.68h-3.68v49.46Z"/><path class="cls-1" d="m1011.6,0h131.34v58.48h-60.16v24.73h59.15v55.48h-59.15v84.22h-71.18V0Zm42.11,196.17v-81.21h63.5v-8.02h-63.5V34.76h66.84v-8.02h-75.53v169.44h8.69Z"/><path class="cls-1" d="m1161.32,0h75.52v222.91h-75.52V0Zm42.11,196.17V26.74h-8.69v169.44h8.69Z"/><path class="cls-1" d="m1260.23,0h74.19v164.42h61.49v58.48h-135.68V0Zm116.97,196.17v-8.02h-74.86V26.74h-8.69v169.44h83.55Z"/><path class="cls-1" d="m1407.61,0h58.82l58.15,85.55L1582.39,0h58.82v222.91h-71.18v-80.21l-45.45,66.84-45.78-66.84v80.21h-71.18V0Zm42.11,196.17V42.78l74.86,108.95,74.53-108.95v153.4h8.69V26.74h-8.69l-74.53,109.95-74.86-109.95h-8.69v169.44h8.69Z"/><path class="cls-1" d="m898.68,115.33c0-50.1-40.92-91.03-91.03-91.03s-91.15,40.92-91.15,91.03,40.92,91.03,91.15,91.03,91.03-40.8,91.03-91.03Zm-165.43-25.92c3.97-12.15,16.99-18.85,29.14-14.88,12.15,3.97,18.73,17.11,14.88,29.27-3.97,12.28-16.99,18.97-29.14,15.01-12.15-3.97-18.85-17.11-14.88-29.39Zm60.15,82.59c-7.56,10.42-22.07,12.77-32.37,5.21-10.29-7.57-12.65-22.07-5.08-32.49,7.44-10.42,21.95-12.77,32.24-5.21,10.42,7.56,12.65,22.2,5.21,32.49Zm-8.93-112.98c0-12.9,10.42-23.31,23.19-23.31s23.07,10.42,23.07,23.31-10.29,23.19-23.07,23.19-23.19-10.42-23.19-23.19Zm68.21,118.68c-10.42,7.56-24.93,5.21-32.37-5.08-7.56-10.42-5.21-25.05,5.08-32.61,10.42-7.44,24.8-5.21,32.37,5.21,7.44,10.42,5.21,24.93-5.08,32.49Zm-15.25-73.04c-3.97-12.28,2.73-25.3,14.88-29.27,12.03-3.97,25.18,2.6,29.14,14.88,3.85,12.28-2.73,25.3-14.88,29.27-12.15,3.97-25.18-2.6-29.14-14.88Z"/><path class="cls-1" d="m931.67,201.89l-4.09-3.47c-8.93-7.44-23.81-8.06-33.11-1.36l-11.91,8.68c-3.1,2.23-6.57,3.84-10.05,4.46,29.89-20.83,49.36-55.56,49.36-94.87,0-63.74-51.34-115.33-114.71-115.33s-114.71,51.59-114.71,115.33,51.34,115.46,114.71,115.46c2.48,0,4.96-.12,7.44-.25h38.32c14.76,0,29.14-4.84,42.16-14.01,9.3-6.45,24.06-5.83,32.99,1.61l4.71,3.97c12.53,10.42,31.38,7.94,42.04-5.33v-19.97c-11.04,13.39-30.51,15.63-43.16,5.08Zm-119.55,13.64c-1.49.12-2.98.12-4.46.12-55.31,0-100.33-45.02-100.33-100.33s45.02-100.2,100.33-100.2,100.2,44.89,100.2,100.2c0,44.4-28.89,82.1-68.95,95.37-8.43,2.73-17.49,4.47-26.79,4.84Z"/></svg>